<svg width="1300" height="244" viewBox="0 0 1300 244" fill="none" xmlns="http://www.w3.org/2000/svg">
<mask id="mask0" style="mask-type:alpha" maskUnits="userSpaceOnUse" x="0" y="0" width="1300" height="244">
<rect width="1300" height="244" rx="20" fill="#F5F5F7"/>
</mask>
<g mask="url(#mask0)">
<path d="M21.8835 193.966C36.0766 189.735 36.094 179.342 37.998 170.368C39.1048 165.151 41.6801 159.457 39.2182 152.694C37.0391 146.707 28.4578 146.136 20.2095 141.377C13.9581 137.771 13.9163 132.937 4.84992 134.516C-4.21646 136.095 -9.6511 144.575 -13.6326 150.793C-17.6141 157.011 -18.1748 167.184 -10.9681 172.028C-7.55437 174.323 -0.915996 178.919 1.65734 183.948C5.02166 190.522 7.69035 198.197 21.8835 193.966Z" stroke="url(#paint0_linear)"/>
<path d="M31.9768 212.234C56.5042 204.923 56.5344 186.962 59.8248 171.454C61.7374 162.438 66.1878 152.598 61.9334 140.91C58.1677 130.565 43.3382 129.578 29.084 121.355C18.281 115.122 18.2087 106.769 2.54087 109.498C-13.1269 112.226 -22.5186 126.88 -29.3992 137.625C-36.2797 148.371 -37.2487 165.952 -24.7946 174.323C-18.8952 178.288 -7.42333 186.231 -2.9763 194.921C2.83765 206.282 7.44946 219.545 31.9768 212.234Z" stroke="url(#paint1_linear)"/>
<path d="M42.1243 230.428C77.1056 220.001 77.1486 194.386 81.8414 172.267C84.5693 159.409 90.9165 145.374 84.8488 128.705C79.4781 113.951 58.328 112.544 37.9985 100.815C22.591 91.9259 22.4879 80.0129 0.142282 83.9046C-22.2033 87.7963 -35.5979 108.695 -45.411 124.021C-55.2242 139.346 -56.6061 164.42 -38.8439 176.359C-30.4302 182.015 -14.0688 193.343 -7.72637 205.736C0.565569 221.939 7.143 240.855 42.1243 230.428Z" stroke="url(#paint2_linear)"/>
<path d="M52.8985 247.773C99.7203 233.816 99.7779 199.531 106.059 169.925C109.71 152.715 118.206 133.93 110.084 111.619C102.896 91.8708 74.5868 89.9866 47.3761 74.2878C26.7535 62.39 26.6155 46.4447 -3.2937 51.6536C-33.2029 56.8625 -51.1313 84.8357 -64.266 105.348C-77.4007 125.861 -79.2504 159.422 -55.4761 175.403C-44.2144 182.972 -22.315 198.135 -13.8258 214.723C-2.72714 236.41 6.07664 261.729 52.8985 247.773Z" stroke="url(#paint3_linear)"/>
<path d="M66.3316 271.442C130.434 252.335 130.513 205.396 139.112 164.863C144.111 141.302 155.742 115.583 144.623 85.038C134.781 58.0016 96.0244 55.4221 58.7711 33.9294C30.5373 17.6403 30.3484 -4.18985 -10.5995 2.94151C-51.5473 10.0729 -76.0925 48.3701 -94.0748 76.4534C-112.057 104.537 -114.59 150.485 -82.0407 172.363C-66.6227 182.726 -36.6409 203.485 -25.0186 226.195C-9.82379 255.886 2.22919 290.55 66.3316 271.442Z" stroke="url(#paint4_linear)"/>
<path d="M109.243 299.668C182.428 277.854 182.518 224.263 192.336 177.987C198.043 151.088 211.322 121.725 198.628 86.8515C187.392 55.9843 143.143 53.0393 100.611 28.5012C68.3768 9.90411 68.1611 -15.0193 21.4113 -6.87742C-25.3386 1.26441 -53.3617 44.9881 -73.8919 77.0505C-94.4222 109.113 -97.3135 161.571 -60.1527 186.549C-42.5501 198.381 -8.32006 222.081 4.94906 248.01C22.2968 281.908 36.0576 321.483 109.243 299.668Z" stroke="url(#paint5_linear)"/>
<path d="M1162.08 249.799C1180.96 251.688 1186.04 239.378 1192.66 229.667C1196.51 224.022 1202.33 218.525 1202.7 209.312C1203.03 201.156 1193.14 196.306 1185.68 186.653C1180.02 179.338 1182.32 173.589 1170.81 171.051C1159.29 168.512 1148.73 175.92 1140.99 181.353C1133.24 186.787 1127.63 198.572 1133.81 207.819C1136.74 212.199 1142.38 220.876 1142.98 228.087C1143.77 237.516 1143.2 247.911 1162.08 249.799Z" stroke="url(#paint6_linear)"/>
<path d="M1165.16 276.361C1197.79 279.625 1206.56 258.352 1218 241.57C1224.66 231.815 1234.72 222.315 1235.36 206.393C1235.93 192.3 1218.83 183.918 1205.93 167.237C1196.16 154.595 1200.14 144.66 1180.24 140.274C1160.34 135.887 1142.08 148.688 1128.7 158.078C1115.32 167.467 1105.62 187.834 1116.31 203.814C1121.37 211.383 1131.11 226.377 1132.15 238.84C1133.52 255.133 1132.53 273.097 1165.16 276.361Z" stroke="url(#paint7_linear)"/>
<path d="M1168.34 302.862C1214.87 307.517 1227.38 277.177 1243.7 253.243C1253.19 239.33 1267.54 225.781 1268.46 203.073C1269.27 182.973 1244.88 171.018 1226.49 147.228C1212.55 129.198 1218.22 115.028 1189.85 108.772C1161.47 102.516 1135.43 120.773 1116.34 134.164C1097.26 147.556 1083.42 176.604 1098.67 199.394C1105.89 210.19 1119.77 231.575 1121.26 249.349C1123.21 272.587 1121.81 298.207 1168.34 302.862Z" stroke="url(#paint8_linear)"/>
<path d="M1172.67 328.661C1234.96 334.892 1251.7 294.282 1273.55 262.246C1286.25 243.624 1305.45 225.49 1306.68 195.095C1307.76 168.192 1275.12 152.19 1250.51 120.347C1231.85 96.2147 1239.44 77.2481 1201.46 68.8748C1163.47 60.5015 1128.62 84.9374 1103.07 102.862C1077.53 120.787 1059.01 159.667 1079.42 190.171C1089.09 204.621 1107.67 233.244 1109.66 257.035C1112.27 288.138 1110.39 322.43 1172.67 328.661Z" stroke="url(#paint9_linear)"/>
<path d="M1177.08 363.249C1262.36 371.78 1285.28 316.183 1315.19 272.323C1332.57 246.828 1358.87 222.001 1360.54 180.388C1362.03 143.556 1317.35 121.648 1283.64 78.0538C1258.1 45.0145 1268.5 19.0478 1216.49 7.5842C1164.49 -3.8794 1116.77 29.575 1081.8 54.1151C1046.82 78.6553 1021.47 131.885 1049.41 173.647C1062.65 193.43 1088.09 232.617 1090.82 265.188C1094.38 307.771 1091.81 354.719 1177.08 363.249Z" stroke="url(#paint10_linear)"/>
<path d="M1214.22 417.576C1311.57 427.315 1337.74 363.84 1371.89 313.765C1391.74 284.658 1421.76 256.313 1423.67 208.804C1425.37 166.753 1374.35 141.741 1335.88 91.9699C1306.71 54.2491 1318.58 24.6031 1259.21 11.5152C1199.84 -1.57269 1145.36 36.622 1105.43 64.6393C1065.5 92.6566 1036.56 153.428 1068.45 201.108C1083.56 223.694 1112.61 268.434 1115.72 305.62C1119.8 354.236 1116.86 407.836 1214.22 417.576Z" stroke="url(#paint11_linear)"/>
</g>
<defs>
<linearGradient id="paint0_linear" x1="31.7193" y1="185.567" x2="-6.91838" y2="141.33" gradientUnits="userSpaceOnUse">
<stop offset="0.0208333" stop-color="#FFEDB1"/>
<stop offset="0.307292" stop-color="#F5A3F2"/>
<stop offset="0.635417" stop-color="#BB77FF"/>
<stop offset="0.947917" stop-color="#7BFAFD"/>
</linearGradient>
<linearGradient id="paint1_linear" x1="48.9743" y1="197.72" x2="-17.7962" y2="121.273" gradientUnits="userSpaceOnUse">
<stop offset="0.0208333" stop-color="#FFEDB1"/>
<stop offset="0.307292" stop-color="#F5A3F2"/>
<stop offset="0.635417" stop-color="#BB77FF"/>
<stop offset="0.947917" stop-color="#7BFAFD"/>
</linearGradient>
<linearGradient id="paint2_linear" x1="66.3664" y1="209.728" x2="-28.8627" y2="100.699" gradientUnits="userSpaceOnUse">
<stop offset="0.0208333" stop-color="#FFEDB1"/>
<stop offset="0.307292" stop-color="#F5A3F2"/>
<stop offset="0.635417" stop-color="#BB77FF"/>
<stop offset="0.947917" stop-color="#7BFAFD"/>
</linearGradient>
<linearGradient id="paint3_linear" x1="85.3461" y1="220.066" x2="-42.1163" y2="74.1326" gradientUnits="userSpaceOnUse">
<stop offset="0.0208333" stop-color="#FFEDB1"/>
<stop offset="0.307292" stop-color="#F5A3F2"/>
<stop offset="0.635417" stop-color="#BB77FF"/>
<stop offset="0.947917" stop-color="#7BFAFD"/>
</linearGradient>
<linearGradient id="paint4_linear" x1="110.755" y1="233.51" x2="-63.7503" y2="33.7168" gradientUnits="userSpaceOnUse">
<stop offset="0.0208333" stop-color="#FFEDB1"/>
<stop offset="0.307292" stop-color="#F5A3F2"/>
<stop offset="0.635417" stop-color="#BB77FF"/>
<stop offset="0.947917" stop-color="#7BFAFD"/>
</linearGradient>
<linearGradient id="paint5_linear" x1="159.96" y1="256.361" x2="-39.2708" y2="28.2585" gradientUnits="userSpaceOnUse">
<stop offset="0.0208333" stop-color="#FFEDB1"/>
<stop offset="0.307292" stop-color="#F5A3F2"/>
<stop offset="0.635417" stop-color="#BB77FF"/>
<stop offset="0.947917" stop-color="#7BFAFD"/>
</linearGradient>
<linearGradient id="paint6_linear" x1="1177.83" y1="244.629" x2="1153.55" y2="173.403" gradientUnits="userSpaceOnUse">
<stop offset="0.0208333" stop-color="#FFEDB1"/>
<stop offset="0.307292" stop-color="#F5A3F2"/>
<stop offset="0.635417" stop-color="#BB77FF"/>
<stop offset="0.947917" stop-color="#7BFAFD"/>
</linearGradient>
<linearGradient id="paint7_linear" x1="1192.37" y1="267.425" x2="1150.41" y2="144.339" gradientUnits="userSpaceOnUse">
<stop offset="0.0208333" stop-color="#FFEDB1"/>
<stop offset="0.307292" stop-color="#F5A3F2"/>
<stop offset="0.635417" stop-color="#BB77FF"/>
<stop offset="0.947917" stop-color="#7BFAFD"/>
</linearGradient>
<linearGradient id="paint8_linear" x1="1207.14" y1="290.118" x2="1147.3" y2="114.571" gradientUnits="userSpaceOnUse">
<stop offset="0.0208333" stop-color="#FFEDB1"/>
<stop offset="0.307292" stop-color="#F5A3F2"/>
<stop offset="0.635417" stop-color="#BB77FF"/>
<stop offset="0.947917" stop-color="#7BFAFD"/>
</linearGradient>
<linearGradient id="paint9_linear" x1="1224.61" y1="311.603" x2="1144.51" y2="76.636" gradientUnits="userSpaceOnUse">
<stop offset="0.0208333" stop-color="#FFEDB1"/>
<stop offset="0.307292" stop-color="#F5A3F2"/>
<stop offset="0.635417" stop-color="#BB77FF"/>
<stop offset="0.947917" stop-color="#7BFAFD"/>
</linearGradient>
<linearGradient id="paint10_linear" x1="1248.19" y1="339.896" x2="1138.53" y2="18.2099" gradientUnits="userSpaceOnUse">
<stop offset="0.0208333" stop-color="#FFEDB1"/>
<stop offset="0.307292" stop-color="#F5A3F2"/>
<stop offset="0.635417" stop-color="#BB77FF"/>
<stop offset="0.947917" stop-color="#7BFAFD"/>
</linearGradient>
<linearGradient id="paint11_linear" x1="1295.39" y1="390.913" x2="1170.2" y2="23.6464" gradientUnits="userSpaceOnUse">
<stop offset="0.0208333" stop-color="#FFEDB1"/>
<stop offset="0.307292" stop-color="#F5A3F2"/>
<stop offset="0.635417" stop-color="#BB77FF"/>
<stop offset="0.947917" stop-color="#7BFAFD"/>
</linearGradient>
</defs>
</svg>
